<svg width="1181" height="249" viewBox="0 0 1181 249" fill="none" xmlns="http://www.w3.org/2000/svg">
<path d="M504.652 55.2C504.652 58.3733 503.718 61.1733 501.852 63.6C500.172 66.0266 498.118 67.8 495.692 68.92C490.838 65.7466 485.238 62.76 478.892 59.96C472.732 57.16 464.892 55.76 455.372 55.76C447.158 55.76 439.598 57.16 432.692 59.96C425.972 62.76 420.092 66.8666 415.052 72.28C410.198 77.6933 406.372 84.4133 403.572 92.44C400.772 100.467 399.372 109.707 399.372 120.16C399.372 141.253 404.598 157.213 415.052 168.04C425.505 178.867 439.318 184.28 456.492 184.28C465.638 184.28 473.572 182.973 480.292 180.36C487.012 177.747 492.798 174.76 497.652 171.4C499.705 172.707 501.572 174.573 503.252 177C505.118 179.427 506.052 182.227 506.052 185.4C506.052 188.013 505.305 190.44 503.812 192.68C502.505 194.92 500.265 196.973 497.092 198.84C492.985 201.453 487.385 203.787 480.292 205.84C473.198 207.893 464.238 208.92 453.412 208.92C441.465 208.92 430.358 207.147 420.092 203.6C409.825 199.867 400.865 194.36 393.212 187.08C385.558 179.613 379.492 170.373 375.012 159.36C370.718 148.16 368.572 135.093 368.572 120.16C368.572 105.6 370.812 92.72 375.292 81.52C379.772 70.32 385.745 60.9866 393.212 53.52C400.865 46.0533 409.732 40.4533 419.812 36.72C429.892 32.8 440.625 30.84 452.012 30.84C460.038 30.84 467.225 31.5866 473.572 33.08C480.105 34.3866 485.612 36.16 490.092 38.4C494.758 40.64 498.305 43.2533 500.732 46.24C503.345 49.2266 504.652 52.2133 504.652 55.2Z" fill="#343434"/>
<path d="M650.319 183.44C650.319 187.36 649.293 190.627 647.239 193.24C645.373 195.667 642.386 197.907 638.279 199.96C633.426 202.573 626.706 204.72 618.119 206.4C609.533 208.08 600.759 208.92 591.799 208.92C578.546 208.92 566.319 207.24 555.119 203.88C544.106 200.333 534.586 194.92 526.559 187.64C518.533 180.36 512.279 171.12 507.799 159.92C503.319 148.72 501.079 135.467 501.079 120.16C501.079 105.227 503.413 92.16 508.079 80.96C512.746 69.76 518.999 60.52 526.839 53.24C534.866 45.7733 544.199 40.1733 554.839 36.44C565.666 32.7066 577.146 30.84 589.279 30.84C597.306 30.84 604.679 31.5866 611.399 33.08C618.119 34.3866 623.906 36.16 628.759 38.4C633.613 40.64 637.346 43.2533 639.959 46.24C642.573 49.04 643.879 52.0266 643.879 55.2C643.879 58.3733 643.039 61.1733 641.359 63.6C639.679 65.84 637.626 67.6133 635.199 68.92C630.159 65.7466 624.186 62.76 617.279 59.96C610.373 57.16 601.693 55.76 591.239 55.76C582.839 55.76 574.999 57.16 567.719 59.96C560.439 62.76 554.093 66.8666 548.679 72.28C543.453 77.6933 539.346 84.4133 536.359 92.44C533.373 100.467 531.879 109.707 531.879 120.16C531.879 131.173 533.373 140.787 536.359 149C539.533 157.027 543.733 163.653 548.959 168.88C554.373 174.107 560.719 178.027 567.999 180.64C575.466 183.067 583.493 184.28 592.079 184.28C598.053 184.28 603.653 183.813 608.879 182.88C614.106 181.76 618.119 180.453 620.919 178.96V134.16H582.279C581.346 133.04 580.506 131.453 579.759 129.4C579.199 127.16 578.919 124.92 578.919 122.68C578.919 118.387 579.853 115.213 581.719 113.16C583.773 111.107 586.479 110.08 589.839 110.08H636.879C640.799 110.08 643.973 111.293 646.399 113.72C649.013 115.96 650.319 119.227 650.319 123.52V183.44Z" fill="#343434"/>
<path d="M693.575 204.44C692.268 205 690.308 205.467 687.695 205.84C685.268 206.4 682.655 206.68 679.855 206.68C674.068 206.68 669.868 205.653 667.255 203.6C664.828 201.36 663.615 197.72 663.615 192.68V35.04C665.108 34.6666 667.068 34.2933 669.495 33.92C672.108 33.36 674.815 33.08 677.615 33.08C683.028 33.08 687.042 34.1066 689.655 36.16C692.268 38.2133 693.575 41.8533 693.575 47.08V204.44Z" fill="#343434"/>
<path d="M856.706 161.32C855.212 162.627 853.159 163.747 850.546 164.68C847.932 165.613 844.946 166.08 841.586 166.08C837.666 166.08 834.212 165.52 831.226 164.4C828.426 163.093 826.466 161.133 825.346 158.52C816.759 138.733 809.292 121.187 802.946 105.88C796.786 90.5733 791.839 77.7866 788.106 67.52H786.706C786.146 80.7733 785.586 93 785.026 104.2C784.652 115.213 784.186 126.04 783.626 136.68C783.066 147.32 782.412 158.147 781.666 169.16C781.106 180.173 780.452 192.027 779.706 204.72C778.212 205.28 776.252 205.747 773.826 206.12C771.586 206.68 769.159 206.96 766.546 206.96C756.466 206.96 751.426 202.853 751.426 194.64C751.426 192.213 751.519 187.92 751.706 181.76C752.079 175.6 752.452 168.32 752.826 159.92C753.386 151.333 753.946 141.907 754.506 131.64C755.252 121.373 755.999 111.013 756.746 100.56C757.492 89.92 758.239 79.56 758.986 69.48C759.732 59.2133 760.479 49.7866 761.226 41.2C762.719 39.7066 765.146 38.12 768.506 36.44C772.052 34.76 776.346 33.92 781.386 33.92C787.359 33.92 792.119 35.04 795.666 37.28C799.212 39.3333 802.012 42.5066 804.066 46.8C807.052 53.3333 810.132 60.4266 813.306 68.08C816.479 75.5466 819.652 83.2 822.826 91.04C825.999 98.6933 829.079 106.347 832.066 114C835.052 121.653 837.946 128.84 840.746 135.56H842.146C845.692 126.227 849.239 116.987 852.786 107.84C856.519 98.6933 860.066 89.92 863.426 81.52C866.972 73.12 870.239 65.1866 873.226 57.72C876.399 50.2533 879.292 43.5333 881.906 37.56C883.959 36.6266 886.479 35.7866 889.466 35.04C892.452 34.2933 895.532 33.92 898.706 33.92C904.866 33.92 909.439 34.8533 912.426 36.72C915.599 38.5866 917.652 41.2933 918.586 44.84C919.332 48.2 920.172 53.8 921.106 61.64C922.039 69.2933 922.972 78.16 923.906 88.24C924.839 98.32 925.772 109.053 926.706 120.44C927.639 131.64 928.479 142.56 929.226 153.2C929.972 163.653 930.626 173.36 931.186 182.32C931.746 191.093 932.119 198 932.306 203.04C930.252 204.347 928.012 205.28 925.586 205.84C923.346 206.587 920.639 206.96 917.466 206.96C913.546 206.96 910.092 206.12 907.106 204.44C904.306 202.76 902.719 199.587 902.346 194.92C901.599 182.227 900.852 169.72 900.106 157.4C899.546 145.08 898.986 133.413 898.426 122.4C897.866 111.387 897.306 101.213 896.746 91.88C896.372 82.5466 895.999 74.6133 895.626 68.08H894.506C890.959 77.6 886.106 89.7333 879.946 104.48C873.972 119.227 866.226 138.173 856.706 161.32Z" fill="#343434"/>
<path d="M1067.06 139.48C1067.06 150.12 1065.47 159.733 1062.3 168.32C1059.12 176.907 1054.64 184.187 1048.86 190.16C1043.26 196.133 1036.35 200.8 1028.14 204.16C1019.92 207.333 1010.78 208.92 1000.7 208.92C990.616 208.92 981.469 207.333 973.256 204.16C965.042 200.8 958.042 196.133 952.256 190.16C946.656 184.187 942.269 176.907 939.096 168.32C935.922 159.733 934.336 150.12 934.336 139.48C934.336 128.84 935.922 119.227 939.096 110.64C942.269 102.053 946.749 94.7733 952.536 88.8C958.322 82.8266 965.322 78.2533 973.536 75.08C981.749 71.72 990.802 70.04 1000.7 70.04C1010.59 70.04 1019.64 71.72 1027.86 75.08C1036.07 78.2533 1043.07 82.92 1048.86 89.08C1054.64 95.0533 1059.12 102.333 1062.3 110.92C1065.47 119.32 1067.06 128.84 1067.06 139.48ZM1000.7 93.56C989.496 93.56 980.629 97.5733 974.096 105.6C967.562 113.627 964.296 124.92 964.296 139.48C964.296 154.04 967.469 165.333 973.816 173.36C980.162 181.2 989.122 185.12 1000.7 185.12C1012.27 185.12 1021.23 181.2 1027.58 173.36C1033.92 165.333 1037.1 154.04 1037.1 139.48C1037.1 125.107 1033.83 113.907 1027.3 105.88C1020.95 97.6666 1012.08 93.56 1000.7 93.56Z" fill="#343434"/>
<path d="M1166.97 71.16C1171.07 71.16 1174.43 72.1866 1177.05 74.24C1179.66 76.1066 1180.97 79.1866 1180.97 83.48C1180.97 85.72 1180.22 89.5466 1178.73 94.96C1177.42 100.187 1175.55 106.347 1173.13 113.44C1170.7 120.533 1167.99 128.187 1165.01 136.4C1162.02 144.613 1158.85 152.827 1155.49 161.04C1152.13 169.067 1148.77 176.813 1145.41 184.28C1142.23 191.56 1139.25 197.813 1136.45 203.04C1134.95 203.973 1132.71 204.813 1129.73 205.56C1126.74 206.493 1123.38 206.96 1119.65 206.96C1110.5 206.96 1104.53 204.44 1101.73 199.4C1099.11 194.733 1095.66 187.453 1091.37 177.56C1087.07 167.48 1082.69 156.56 1078.21 144.8C1073.73 132.853 1069.34 121 1065.05 109.24C1060.94 97.2933 1057.67 87.0266 1055.25 78.44C1056.93 76.3866 1059.17 74.7066 1061.97 73.4C1064.77 71.9066 1067.75 71.16 1070.93 71.16C1075.22 71.16 1078.58 72.1866 1081.01 74.24C1083.62 76.1066 1085.67 79.4666 1087.17 84.32L1102.57 132.48C1103.69 136.027 1104.99 139.947 1106.49 144.24C1107.98 148.533 1109.47 152.92 1110.97 157.4C1112.46 161.693 1113.95 165.893 1115.45 170C1116.94 173.92 1118.15 177.28 1119.09 180.08H1120.49C1126.83 162.533 1132.9 144.893 1138.69 127.16C1144.47 109.24 1149.51 91.6 1153.81 74.24C1157.35 72.1866 1161.74 71.16 1166.97 71.16Z" fill="#343434"/>
<path fill-rule="evenodd" clip-rule="evenodd" d="M285.985 105.691C306.821 84.8546 303.067 47.3191 277.601 21.8528C252.135 -3.61356 214.599 -7.36711 193.763 13.469C180.147 27.0855 177.032 47.8338 183.615 67.6848C172.099 62.6639 159.385 59.8792 146.02 59.8792C135.823 59.8792 126.006 61.4999 116.81 64.4978C122.06 45.6379 118.58 26.3583 105.691 13.469C84.8546 -7.36704 47.3191 -3.61349 21.8528 21.8528C-3.61356 47.3192 -7.36711 84.8547 13.469 105.691C25.0995 117.321 41.9331 121.29 58.9665 118.098C54.3907 129.171 51.866 141.307 51.866 154.033C51.866 206.032 94.02 248.186 146.02 248.186C198.019 248.186 240.173 206.032 240.173 154.033C240.173 140.486 237.312 127.607 232.161 115.967C251.893 122.381 272.458 119.218 285.985 105.691Z" fill="url(#paint0_linear_126_24)"/>
<defs>
<linearGradient id="paint0_linear_126_24" x1="149.727" y1="0" x2="149.727" y2="248.186" gradientUnits="userSpaceOnUse">
<stop stop-color="#3F4AD9"/>
<stop offset="1" stop-color="#1B2B88"/>
</linearGradient>
</defs>
</svg>
